# xmcd CD database file
#
# Track frame offsets:
#	150
#	18427
#	41887
#	60082
#
# Disc length: 1109 seconds
#
# Revision: 6
# Processed by: cddbd v1.5.2PL0 Copyright (c) Steve Scherf et al.
# Submitted via: CDex 1.70beta3
#
DISCID=28045304
DTITLE=ＴＶアニメ　ラストエグザイル－銀翼のファム－Buddy 坂本真綾 - ＴＶアニメ　ラストエグザイル－銀翼のファム－Buddy 坂本真綾
DYEAR=2011
DGENRE=Anime
TTITLE0=Buddy
TTITLE1=something little
TTITLE2=Buddy -Instrumental-
TTITLE3=something little -Instrumental-
EXTD=YEAR: 2011
EXTT0=
EXTT1=
EXTT2=
EXTT3=
PLAYORDER=
